<svg xmlns="http://www.w3.org/2000/svg" xmlns:xlink="http://www.w3.org/1999/xlink" viewBox="0 0 64 64">
  <rect width="64" height="64" rx="14" fill="#0D1A1A"/>
  <g transform="translate(0.15, 0.35) scale(1.008)">
    <defs>
      <linearGradient id="fg" gradientUnits="userSpaceOnUse" x1="63.6485" y1="31.6665" x2="0" y2="31.6665">
        <stop offset="0" stop-color="#39808C"/>
        <stop offset="0.1164" stop-color="#428591"/>
        <stop offset="0.3093" stop-color="#5C93A0"/>
        <stop offset="0.5" stop-color="#7BA5B2"/>
        <stop offset="1" stop-color="#B0D4D8"/>
      </linearGradient>
    </defs>
    <path fill="url(#fg)" d="M9.04,9.45c1.85-1.9,3.94-3.57,6.22-4.96c0.25-0.15,0.59-0.05,0.72,0.21l4.26,8.85l1.43-0.69l4.28,8.89
      c0.11,0.23,0.03,0.5-0.18,0.63c-0.58,0.38-1.12,0.81-1.62,1.29c-0.18,0.18-0.46,0.19-0.66,0.04l-7.71-6.15l0.99-1.24L9.09,10.2
      C8.86,10.02,8.83,9.67,9.04,9.45z M10.79,35.41l9.61-2.18c0.25-0.06,0.41-0.29,0.38-0.54c-0.04-0.35-0.06-0.7-0.06-1.06
      c0-0.34,0.02-0.67,0.06-1c0.03-0.25-0.13-0.48-0.38-0.54l-9.61-2.2l-0.35,1.54l-9.58-2.19c-0.29-0.07-0.58,0.13-0.61,0.42
      C0.1,28.93,0,30.23,0,31.55c0,1.38,0.08,2.73,0.25,4.06c0.04,0.29,0.32,0.49,0.61,0.43l9.58-2.18L10.79,35.41z M28.36,21.14
      c0.65-0.21,1.32-0.37,2.01-0.47c0.25-0.03,0.44-0.24,0.44-0.49l0-9.85h-1.58V0.51c0-0.3-0.26-0.53-0.55-0.51
      c-2.7,0.26-5.3,0.87-7.76,1.76c-0.28,0.1-0.41,0.43-0.28,0.69l4.26,8.85L23.48,12l4.28,8.88C27.86,21.11,28.12,21.22,28.36,21.14z
       M29.18,62.82L29.2,53l1.58,0l0.02-9.86c0-0.25-0.19-0.46-0.44-0.49c-0.69-0.09-1.37-0.25-2.01-0.47c-0.24-0.08-0.5,0.02-0.61,0.25
      l-4.29,8.88L24.87,52l-4.28,8.85c-0.13,0.27,0,0.59,0.28,0.69c2.46,0.9,5.06,1.51,7.75,1.77C28.92,63.35,29.18,63.11,29.18,62.82z
       M14.52,19.14L14.52,19.14l-0.99,1.24l-7.68-6.13c-0.23-0.19-0.58-0.13-0.74,0.12c-1.44,2.21-2.61,4.62-3.46,7.16
      c-0.09,0.28,0.08,0.59,0.37,0.65l9.59,2.2l-0.35,1.54l9.6,2.2c0.25,0.06,0.49-0.08,0.58-0.32c0.24-0.65,0.55-1.27,0.9-1.86
      c0.13-0.22,0.09-0.49-0.11-0.65L14.52,19.14z M20.21,49.75l1.43,0.69l4.29-8.88c0.11-0.23,0.03-0.5-0.18-0.63
      c-0.58-0.38-1.12-0.81-1.62-1.29c-0.18-0.18-0.46-0.2-0.66-0.04l-7.72,6.14l0.99,1.24l-7.68,6.11C8.82,53.27,8.8,53.62,9,53.83
      c1.85,1.9,3.93,3.58,6.21,4.97c0.25,0.16,0.59,0.05,0.72-0.21L20.21,49.75z M13.51,42.92l0.99,1.24l7.71-6.13
      c0.2-0.16,0.24-0.43,0.11-0.65c-0.35-0.59-0.65-1.21-0.89-1.87c-0.09-0.24-0.33-0.38-0.58-0.32l-9.61,2.18l0,0l0.35,1.55L2.01,41.1
      c-0.29,0.07-0.46,0.37-0.37,0.65c0.85,2.55,2.01,4.96,3.45,7.17c0.16,0.25,0.51,0.3,0.74,0.12L13.51,42.92z M34.41,0.51v9.82h-1.58
      l0,9.86c0,0.25,0.19,0.46,0.44,0.49c0.71,0.09,1.39,0.25,2.05,0.47c0.24,0.08,0.5-0.02,0.61-0.25l4.31-8.87l1.81,0.88l-4.31,8.87
      c-0.11,0.23-0.03,0.5,0.18,0.63c0.58,0.38,1.12,0.81,1.61,1.29c0.18,0.18,0.46,0.2,0.66,0.04l7.73-6.12l1.25,1.58l-7.72,6.12
      c-0.2,0.16-0.24,0.43-0.11,0.65c0.35,0.59,0.65,1.21,0.89,1.87c0.09,0.24,0.33,0.38,0.58,0.32l9.61-2.17l0.44,1.96l-9.62,2.17
      c-0.25,0.06-0.41,0.29-0.38,0.54c0.03,0.34,0.06,0.69,0.05,1.04c0,0.35-0.02,0.68-0.06,1.02c-0.03,0.25,0.13,0.48,0.38,0.54
      l9.6,2.22l-0.45,1.96l-9.6-2.22c-0.25-0.06-0.49,0.08-0.58,0.32c-0.24,0.65-0.55,1.27-0.9,1.86c-0.13,0.22-0.09,0.49,0.11,0.65
      l7.69,6.16l-1.26,1.57l-7.69-6.16c-0.2-0.16-0.48-0.14-0.66,0.04c-0.5,0.48-1.04,0.91-1.62,1.28c-0.21,0.14-0.29,0.41-0.18,0.63
      l4.26,8.89l-1.82,0.87l-4.26-8.89c-0.11-0.23-0.37-0.33-0.61-0.25c-0.65,0.21-1.32,0.37-2.01,0.46c-0.25,0.03-0.44,0.24-0.44,0.49
      L32.79,53l1.58,0l-0.02,9.82c0,0.3,0.26,0.53,0.55,0.51c16.08-1.55,28.68-15.06,28.73-31.56C63.71,15.22,51.12,1.59,34.97,0
      C34.67-0.03,34.41,0.21,34.41,0.51z"/>
  </g>
</svg>
