<?xml version="1.0" encoding="utf-8"?>
<!-- Generator: Adobe Illustrator 28.0.0, SVG Export Plug-In . SVG Version: 6.00 Build 0)  -->
<svg version="1.1" id="Layer_1" xmlns="http://www.w3.org/2000/svg" xmlns:xlink="http://www.w3.org/1999/xlink" x="0px" y="0px"
	 viewBox="0 0 288 63.33" style="enable-background:new 0 0 288 63.33;" xml:space="preserve">
<style type="text/css">
	.st0{fill:#1E2223;}
	.st1{fill:url(#SVGID_1_);}
	.st2{fill:#FFFFFF;}
	.st3{fill:url(#SVGID_00000001631804438546723810000012725471948711978418_);}
	.st4{fill:url(#SVGID_00000117663193592688692390000011435755725339383741_);}
	.st5{fill:url(#SVGID_00000105422888208633611520000007782305329667428492_);}
	.st6{fill:url(#SVGID_00000079446728538496908310000002036169283684988557_);}
	.st7{fill:url(#SVGID_00000078017803050159717500000012223369367554537399_);}
	.st8{fill:url(#SVGID_00000031917702269469018060000001125005158493792678_);}
	.st9{fill:url(#SVGID_00000103253902543622176350000004478577826125326752_);}
</style>
<g>
	<linearGradient id="SVGID_1_" gradientUnits="userSpaceOnUse" x1="63.6485" y1="31.6665" x2="-1.818989e-12" y2="31.6665">
		<stop  offset="0" style="stop-color:#39808C"/>
		<stop  offset="0.1164" style="stop-color:#428591"/>
		<stop  offset="0.3093" style="stop-color:#5C93A0"/>
		<stop  offset="0.5" style="stop-color:#7BA5B2"/>
		<stop  offset="1" style="stop-color:#B0D4D8"/>
	</linearGradient>
	<path class="st1" d="M9.04,9.45c1.85-1.9,3.94-3.57,6.22-4.96c0.25-0.15,0.59-0.05,0.72,0.21l4.26,8.85l1.43-0.69l4.28,8.89
		c0.11,0.23,0.03,0.5-0.18,0.63c-0.58,0.38-1.12,0.81-1.62,1.29c-0.18,0.18-0.46,0.19-0.66,0.04l-7.71-6.15l0.99-1.24L9.09,10.2
		C8.86,10.02,8.83,9.67,9.04,9.45z M10.79,35.41l9.61-2.18c0.25-0.06,0.41-0.29,0.38-0.54c-0.04-0.35-0.06-0.7-0.06-1.06
		c0-0.34,0.02-0.67,0.06-1c0.03-0.25-0.13-0.48-0.38-0.54l-9.61-2.2l-0.35,1.54l-9.58-2.19c-0.29-0.07-0.58,0.13-0.61,0.42
		C0.1,28.93,0,30.23,0,31.55c0,1.38,0.08,2.73,0.25,4.06c0.04,0.29,0.32,0.49,0.61,0.43l9.58-2.18L10.79,35.41z M28.36,21.14
		c0.65-0.21,1.32-0.37,2.01-0.47c0.25-0.03,0.44-0.24,0.44-0.49l0-9.85h-1.58V0.51c0-0.3-0.26-0.53-0.55-0.51
		c-2.7,0.26-5.3,0.87-7.76,1.76c-0.28,0.1-0.41,0.43-0.28,0.69l4.26,8.85L23.48,12l4.28,8.88C27.86,21.11,28.12,21.22,28.36,21.14z
		 M29.18,62.82L29.2,53l1.58,0l0.02-9.86c0-0.25-0.19-0.46-0.44-0.49c-0.69-0.09-1.37-0.25-2.01-0.47c-0.24-0.08-0.5,0.02-0.61,0.25
		l-4.29,8.88L24.87,52l-4.28,8.85c-0.13,0.27,0,0.59,0.28,0.69c2.46,0.9,5.06,1.51,7.75,1.77C28.92,63.35,29.18,63.11,29.18,62.82z
		 M14.52,19.14L14.52,19.14l-0.99,1.24l-7.68-6.13c-0.23-0.19-0.58-0.13-0.74,0.12c-1.44,2.21-2.61,4.62-3.46,7.16
		c-0.09,0.28,0.08,0.59,0.37,0.65l9.59,2.2l-0.35,1.54l9.6,2.2c0.25,0.06,0.49-0.08,0.58-0.32c0.24-0.65,0.55-1.27,0.9-1.86
		c0.13-0.22,0.09-0.49-0.11-0.65L14.52,19.14z M20.21,49.75l1.43,0.69l4.29-8.88c0.11-0.23,0.03-0.5-0.18-0.63
		c-0.58-0.38-1.12-0.81-1.62-1.29c-0.18-0.18-0.46-0.2-0.66-0.04l-7.72,6.14l0.99,1.24l-7.68,6.11C8.82,53.27,8.8,53.62,9,53.83
		c1.85,1.9,3.93,3.58,6.21,4.97c0.25,0.16,0.59,0.05,0.72-0.21L20.21,49.75z M13.51,42.92l0.99,1.24l7.71-6.13
		c0.2-0.16,0.24-0.43,0.11-0.65c-0.35-0.59-0.65-1.21-0.89-1.87c-0.09-0.24-0.33-0.38-0.58-0.32l-9.61,2.18l0,0l0.35,1.55L2.01,41.1
		c-0.29,0.07-0.46,0.37-0.37,0.65c0.85,2.55,2.01,4.96,3.45,7.17c0.16,0.25,0.51,0.3,0.74,0.12L13.51,42.92z M34.41,0.51v9.82h-1.58
		l0,9.86c0,0.25,0.19,0.46,0.44,0.49c0.71,0.09,1.39,0.25,2.05,0.47c0.24,0.08,0.5-0.02,0.61-0.25l4.31-8.87l1.81,0.88l-4.31,8.87
		c-0.11,0.23-0.03,0.5,0.18,0.63c0.58,0.38,1.12,0.81,1.61,1.29c0.18,0.18,0.46,0.2,0.66,0.04l7.73-6.12l1.25,1.58l-7.72,6.12
		c-0.2,0.16-0.24,0.43-0.11,0.65c0.35,0.59,0.65,1.21,0.89,1.87c0.09,0.24,0.33,0.38,0.58,0.32l9.61-2.17l0.44,1.96l-9.62,2.17
		c-0.25,0.06-0.41,0.29-0.38,0.54c0.03,0.34,0.06,0.69,0.05,1.04c0,0.35-0.02,0.68-0.06,1.02c-0.03,0.25,0.13,0.48,0.38,0.54
		l9.6,2.22l-0.45,1.96l-9.6-2.22c-0.25-0.06-0.49,0.08-0.58,0.32c-0.24,0.65-0.55,1.27-0.9,1.86c-0.13,0.22-0.09,0.49,0.11,0.65
		l7.69,6.16l-1.26,1.57l-7.69-6.16c-0.2-0.16-0.48-0.14-0.66,0.04c-0.5,0.48-1.04,0.91-1.62,1.28c-0.21,0.14-0.29,0.41-0.18,0.63
		l4.26,8.89l-1.82,0.87l-4.26-8.89c-0.11-0.23-0.37-0.33-0.61-0.25c-0.65,0.21-1.32,0.37-2.01,0.46c-0.25,0.03-0.44,0.24-0.44,0.49
		L32.79,53l1.58,0l-0.02,9.82c0,0.3,0.26,0.53,0.55,0.51c16.08-1.55,28.68-15.06,28.73-31.56C63.71,15.22,51.12,1.59,34.97,0
		C34.67-0.03,34.41,0.21,34.41,0.51z"/>
	<g>
		<path class="st2" d="M177.73,13.59h-6.04c-0.28,0-0.5,0.22-0.5,0.5v35.15c0,0.28,0.22,0.5,0.5,0.5h6.04c0.28,0,0.5-0.22,0.5-0.5
			V14.09C178.23,13.82,178.01,13.59,177.73,13.59z"/>
		<path class="st2" d="M242.32,13.59h-6.04c-0.28,0-0.5,0.22-0.5,0.5v35.15c0,0.28,0.22,0.5,0.5,0.5h6.04c0.28,0,0.5-0.22,0.5-0.5
			V14.09C242.82,13.82,242.59,13.59,242.32,13.59z"/>
		<path class="st2" d="M158.89,13.59h-6.04c-0.28,0-0.5,0.22-0.5,0.5v14.39h-22.57V14.09c0-0.28-0.22-0.5-0.5-0.5h-6.04
			c-0.28,0-0.5,0.22-0.5,0.5v35.15c0,0.28,0.22,0.5,0.5,0.5h6.04c0.28,0,0.5-0.22,0.5-0.5V34.14h22.57v15.11
			c0,0.28,0.22,0.5,0.5,0.5h6.04c0.28,0,0.5-0.22,0.5-0.5V14.09C159.39,13.82,159.17,13.59,158.89,13.59z"/>
		<path class="st2" d="M109.86,15.05c-1.69-0.96-3.77-1.45-6.18-1.45h-22.7c-0.28,0-0.5,0.22-0.5,0.5v15.42h7.04v-10.6h14.05
			c1.36,0,2.54,0.25,3.5,0.74c1,0.51,1.76,1.24,2.27,2.18c0.5,0.92,0.75,2.03,0.75,3.33c0,1.94-0.59,3.51-1.74,4.65
			c-1.16,1.13-2.77,1.71-4.78,1.71H88.45c-4.4,0-7.97,3.57-7.97,7.97v9.75c0,0.28,0.22,0.5,0.5,0.5h6.04c0.28,0,0.5-0.22,0.5-0.5
			V36.79h15.93c2.44,0,4.55-0.49,6.27-1.45c1.7-0.96,3.03-2.32,3.95-4.05c0.94-1.75,1.41-3.81,1.41-6.12c0-2.35-0.46-4.41-1.36-6.12
			C112.84,17.35,111.54,16.01,109.86,15.05z"/>
		<path class="st2" d="M219.04,35.43l0.71-0.45c1.55-0.99,2.7-2.2,3.5-3.7c0.94-1.76,1.41-3.82,1.41-6.12
			c0-2.35-0.46-4.41-1.36-6.12c-0.89-1.69-2.19-3.04-3.87-4c-1.69-0.96-3.77-1.45-6.18-1.45h-22.69c-0.28,0-0.5,0.22-0.5,0.5v14.92
			c0,0.28,0.22,0.5,0.5,0.5h6.04c0.28,0,0.5-0.22,0.5-0.5v-10.1h14.05c1.36,0,2.54,0.25,3.5,0.74c0.99,0.51,1.76,1.24,2.27,2.18
			c0.5,0.92,0.75,2.03,0.75,3.33c0,1.95-0.59,3.51-1.74,4.65c-1.16,1.13-2.76,1.71-4.78,1.71h-13.11c-4.4,0-7.98,3.57-7.98,7.98
			v9.74c0,0.28,0.22,0.5,0.5,0.5h6.04c0.28,0,0.5-0.22,0.5-0.5V36.79h15.32l6.29,12.58c0.11,0.23,0.34,0.37,0.6,0.37h6.35
			c0.25,0,0.41-0.26,0.3-0.48L219.04,35.43z"/>
		<path class="st2" d="M287,34.92c-0.68-1.14-1.61-2.11-2.79-2.88c-1.22-0.8-2.61-1.47-4.13-1.97c-1.56-0.52-3.2-0.96-4.87-1.3
			c-1.71-0.35-3.37-0.67-4.96-0.96c-1.65-0.3-3.13-0.64-4.42-0.99c-1.39-0.37-2.52-0.87-3.37-1.46c-1.01-0.72-1.53-1.67-1.53-2.84
			c0-0.98,0.44-1.86,1.29-2.59c0.75-0.65,1.89-1.15,3.37-1.48c1.4-0.31,3.14-0.46,5.19-0.46c1.74,0,3.29,0.2,4.61,0.59
			c1.37,0.41,2.47,1,3.28,1.76c0.66,0.63,1.08,1.35,1.25,2.14c0.06,0.27,0.28,0.48,0.56,0.48h5.82c0.29,0,0.53-0.25,0.51-0.53
			c-0.09-1.39-0.46-2.62-1.09-3.67c-0.75-1.24-1.83-2.31-3.21-3.18c-1.41-0.88-3.15-1.54-5.16-1.98c-2.07-0.45-4.37-0.67-6.86-0.67
			c-2.53,0-4.88,0.23-7,0.67c-2.07,0.44-3.88,1.09-5.37,1.94c-1.44,0.83-2.56,1.88-3.32,3.13c-0.75,1.25-1.14,2.73-1.14,4.39
			c0,1.71,0.34,3.16,1.01,4.32c0.68,1.18,1.61,2.16,2.78,2.92c1.22,0.8,2.61,1.47,4.13,2c1.55,0.53,3.18,0.98,4.86,1.32
			c1.71,0.35,3.37,0.67,4.99,0.96c1.67,0.31,3.17,0.66,4.45,1.05c1.37,0.42,2.5,0.95,3.35,1.58c1.03,0.76,1.54,1.79,1.54,3.05
			c0,0.79-0.23,1.5-0.69,2.11c-0.41,0.54-0.97,1.02-1.67,1.41c-0.67,0.37-1.44,0.67-2.29,0.87c-0.8,0.19-1.7,0.35-2.68,0.46
			c-0.96,0.12-1.98,0.17-3.01,0.17c-2.06,0-3.89-0.2-5.45-0.58c-1.64-0.4-2.94-1.04-3.85-1.89c-0.88-0.81-1.37-1.86-1.47-3.1
			c-0.02-0.28-0.24-0.52-0.53-0.52h-5.9c-0.28,0-0.52,0.24-0.51,0.52c0.08,1.86,0.52,3.45,1.31,4.72c0.89,1.42,2.14,2.58,3.72,3.44
			c1.64,0.89,3.58,1.53,5.75,1.92c2.22,0.39,4.63,0.59,7.14,0.59c3.48,0,6.58-0.4,9.23-1.18c2.56-0.76,4.58-1.98,6.01-3.64
			c1.39-1.62,2.1-3.82,2.1-6.53C288,37.43,287.66,36.03,287,34.92z"/>
	</g>
</g>
</svg>
